<svg xmlns="http://www.w3.org/2000/svg" height="20" viewBox="0 96 960 960" width="20"><path d="m427 684 204-203-15-15-189 188-85-84-15 15 100 99Zm53.174 224Q412 908 351.442 882.109q-60.559-25.892-106.075-71.348-45.515-45.457-71.441-105.935Q148 644.348 148 576.174q0-69.174 25.891-129.232 25.892-60.059 71.348-105.574 45.457-45.516 105.935-71.442Q411.652 244 479.826 244q69.174 0 129.232 25.891 60.059 25.892 105.574 71.348 45.516 45.457 71.442 105.435Q812 506.652 812 575.826q0 68.174-25.891 128.732-25.892 60.559-71.348 106.075-45.457 45.515-105.435 71.441Q549.348 908 480.174 908Z"/></svg>